<mxfile host="app.diagrams.net" modified="2024-05-06T14:20:10.294Z" agent="Mozilla/5.0 (Windows NT 10.0; Win64; x64) AppleWebKit/537.36 (KHTML, like Gecko) Chrome/124.0.0.0 Safari/537.36" etag="cnsQx8oHLgqoO1Cna9fm" version="24.3.1" type="github">
  <diagram name="Page-1" id="B31hKMBzb777jyXyPJCF">
    <mxGraphModel dx="1323" dy="687" grid="1" gridSize="10" guides="1" tooltips="1" connect="1" arrows="1" fold="1" page="1" pageScale="1" pageWidth="850" pageHeight="1100" math="0" shadow="0">
      <root>
        <mxCell id="0" />
        <mxCell id="1" parent="0" />
        <mxCell id="wwRH5zeaDOmvwE6yOPtP-1" value="Login Form" style="whiteSpace=wrap;html=1;aspect=fixed;" vertex="1" parent="1">
          <mxGeometry x="100" y="390" width="80" height="80" as="geometry" />
        </mxCell>
        <mxCell id="wwRH5zeaDOmvwE6yOPtP-2" value="" style="shape=flexArrow;endArrow=classic;html=1;rounded=0;" edge="1" parent="1">
          <mxGeometry width="50" height="50" relative="1" as="geometry">
            <mxPoint x="180" y="429.5" as="sourcePoint" />
            <mxPoint x="270" y="429.5" as="targetPoint" />
          </mxGeometry>
        </mxCell>
        <mxCell id="wwRH5zeaDOmvwE6yOPtP-4" value="" style="shape=flexArrow;endArrow=classic;startArrow=classic;html=1;rounded=0;entryX=0.5;entryY=1;entryDx=0;entryDy=0;" edge="1" parent="1" target="wwRH5zeaDOmvwE6yOPtP-5">
          <mxGeometry width="100" height="100" relative="1" as="geometry">
            <mxPoint x="394.5" y="370" as="sourcePoint" />
            <mxPoint x="390" y="290" as="targetPoint" />
          </mxGeometry>
        </mxCell>
        <mxCell id="wwRH5zeaDOmvwE6yOPtP-5" value="API&lt;br&gt;https://catfact.ninja/" style="ellipse;whiteSpace=wrap;html=1;" vertex="1" parent="1">
          <mxGeometry x="335" y="220" width="120" height="60" as="geometry" />
        </mxCell>
        <mxCell id="wwRH5zeaDOmvwE6yOPtP-7" value="Level 2 JS" style="swimlane;whiteSpace=wrap;html=1;" vertex="1" parent="1">
          <mxGeometry x="582.7" y="360" width="370" height="200" as="geometry" />
        </mxCell>
        <mxCell id="wwRH5zeaDOmvwE6yOPtP-8" value="&lt;table style=&quot;table-layout: fixed; font-size: 10pt; font-family: Arial; width: 0px; border-collapse: collapse; border: none;&quot; data-sheets-root=&quot;1&quot; border=&quot;1&quot; dir=&quot;ltr&quot; cellpadding=&quot;0&quot; cellspacing=&quot;0&quot; xmlns=&quot;http://www.w3.org/1999/xhtml&quot;&gt;&lt;colgroup&gt;&lt;col width=&quot;343&quot;&gt;&lt;/colgroup&gt;&lt;tbody&gt;&lt;tr style=&quot;height: 21px;&quot;&gt;&lt;td style=&quot;border: 1px dotted rgb(0, 0, 0); overflow: hidden; padding: 2px 3px; vertical-align: bottom;&quot; data-sheets-value=&quot;{&amp;quot;1&amp;quot;:2,&amp;quot;2&amp;quot;:&amp;quot;Admin Signup, Login &amp;amp; Logout Page with Limited Access&amp;quot;}&quot;&gt;Admin Signup, Login &amp;amp; Logout Page with Limited Access&lt;/td&gt;&lt;/tr&gt;&lt;tr style=&quot;height: 21px;&quot;&gt;&lt;td style=&quot;border-width: 1px; border-style: solid dotted dotted; border-color: rgb(204, 204, 204) rgb(0, 0, 0) rgb(0, 0, 0); border-image: initial; overflow: hidden; padding: 2px 3px; vertical-align: bottom;&quot; data-sheets-value=&quot;{&amp;quot;1&amp;quot;:2,&amp;quot;2&amp;quot;:&amp;quot;Ajax Filter DB result for Flight Booking system [DSA]&amp;quot;}&quot;&gt;Ajax Filter DB result for Flight Booking system [DSA]&lt;/td&gt;&lt;/tr&gt;&lt;tr style=&quot;height: 21px;&quot;&gt;&lt;td style=&quot;border-width: 1px; border-style: solid dotted dotted; border-color: rgb(204, 204, 204) rgb(0, 0, 0) rgb(0, 0, 0); border-image: initial; overflow: hidden; padding: 2px 3px; vertical-align: bottom;&quot; data-sheets-value=&quot;{&amp;quot;1&amp;quot;:2,&amp;quot;2&amp;quot;:&amp;quot;Add to Cart&amp;quot;}&quot;&gt;Add to Cart&lt;/td&gt;&lt;/tr&gt;&lt;tr style=&quot;height: 21px;&quot;&gt;&lt;td style=&quot;border-width: 1px; border-style: solid dotted dotted; border-color: rgb(204, 204, 204) rgb(0, 0, 0) rgb(0, 0, 0); border-image: initial; overflow: hidden; padding: 2px 3px; vertical-align: bottom;&quot; data-sheets-value=&quot;{&amp;quot;1&amp;quot;:2,&amp;quot;2&amp;quot;:&amp;quot;Payment Gateway&amp;quot;}&quot;&gt;Payment Gateway&lt;/td&gt;&lt;/tr&gt;&lt;/tbody&gt;&lt;/table&gt;" style="text;html=1;align=left;verticalAlign=middle;resizable=0;points=[];autosize=1;strokeColor=none;fillColor=none;" vertex="1" parent="wwRH5zeaDOmvwE6yOPtP-7">
          <mxGeometry x="10" y="60" width="370" height="100" as="geometry" />
        </mxCell>
        <mxCell id="wwRH5zeaDOmvwE6yOPtP-9" value="" style="shape=flexArrow;endArrow=classic;html=1;rounded=0;exitX=0.985;exitY=0.428;exitDx=0;exitDy=0;exitPerimeter=0;" edge="1" parent="1">
          <mxGeometry width="50" height="50" relative="1" as="geometry">
            <mxPoint x="520" y="471.36" as="sourcePoint" />
            <mxPoint x="582.7" y="470" as="targetPoint" />
          </mxGeometry>
        </mxCell>
        <mxCell id="wwRH5zeaDOmvwE6yOPtP-11" value="Level 1 JS" style="swimlane;whiteSpace=wrap;html=1;startSize=23;" vertex="1" parent="1">
          <mxGeometry x="270" y="370" width="250" height="200" as="geometry" />
        </mxCell>
        <UserObject label="&lt;table xmlns=&quot;http://www.w3.org/1999/xhtml&quot; cellspacing=&quot;0&quot; cellpadding=&quot;0&quot; dir=&quot;ltr&quot; border=&quot;1&quot; style=&quot;table-layout:fixed;font-size:10pt;font-family:Arial;width:0px;border-collapse:collapse;border:none&quot; data-sheets-root=&quot;1&quot;&gt;&lt;colgroup&gt;&lt;col width=&quot;235&quot;&gt;&lt;/colgroup&gt;&lt;tbody&gt;&lt;tr style=&quot;height:21px;&quot;&gt;&lt;td style=&quot;border-top:1px dotted #000000;border-right:1px dotted #000000;border-bottom:1px dotted #000000;border-left:1px dotted #000000;overflow:hidden;padding:2px 3px 2px 3px;vertical-align:bottom;&quot; data-sheets-value=&quot;{&amp;quot;1&amp;quot;:2,&amp;quot;2&amp;quot;:&amp;quot;Header&amp;quot;}&quot;&gt;Header&lt;/td&gt;&lt;/tr&gt;&lt;tr style=&quot;height:21px;&quot;&gt;&lt;td style=&quot;border-right:1px dotted #000000;border-bottom:1px dotted #000000;border-left:1px dotted #000000;overflow:hidden;padding:2px 3px 2px 3px;vertical-align:bottom;&quot; data-sheets-value=&quot;{&amp;quot;1&amp;quot;:2,&amp;quot;2&amp;quot;:&amp;quot;Products &amp;amp; Services&amp;quot;}&quot;&gt;Products &amp;amp; Services&lt;/td&gt;&lt;/tr&gt;&lt;tr style=&quot;height:21px;&quot;&gt;&lt;td style=&quot;border-right:1px dotted #000000;border-bottom:1px dotted #000000;border-left:1px dotted #000000;overflow:hidden;padding:2px 3px 2px 3px;vertical-align:bottom;&quot; data-sheets-value=&quot;{&amp;quot;1&amp;quot;:2,&amp;quot;2&amp;quot;:&amp;quot;Image Slider&amp;quot;}&quot;&gt;Image Slider&lt;/td&gt;&lt;/tr&gt;&lt;tr style=&quot;height:21px;&quot;&gt;&lt;td style=&quot;border-right:1px dotted #000000;border-bottom:1px dotted #000000;border-left:1px dotted #000000;overflow:hidden;padding:2px 3px 2px 3px;vertical-align:bottom;&quot; data-sheets-value=&quot;{&amp;quot;1&amp;quot;:2,&amp;quot;2&amp;quot;:&amp;quot;FAQ&amp;quot;}&quot;&gt;FAQ&lt;/td&gt;&lt;/tr&gt;&lt;tr style=&quot;height:21px;&quot;&gt;&lt;td style=&quot;border-right:1px dotted #000000;border-bottom:1px dotted #000000;border-left:1px dotted #000000;overflow:hidden;padding:2px 3px 2px 3px;vertical-align:bottom;&quot; data-sheets-value=&quot;{&amp;quot;1&amp;quot;:2,&amp;quot;2&amp;quot;:&amp;quot;Pricing Page&amp;quot;}&quot;&gt;Pricing Page&lt;/td&gt;&lt;/tr&gt;&lt;tr style=&quot;height:21px;&quot;&gt;&lt;td style=&quot;border-right:1px dotted #000000;border-bottom:1px dotted #000000;border-left:1px dotted #000000;overflow:hidden;padding:2px 3px 2px 3px;vertical-align:bottom;&quot; data-sheets-value=&quot;{&amp;quot;1&amp;quot;:2,&amp;quot;2&amp;quot;:&amp;quot;Footer&amp;quot;}&quot;&gt;Footer&lt;/td&gt;&lt;/tr&gt;&lt;/tbody&gt;&lt;/table&gt;" link="&lt;table xmlns=&quot;http://www.w3.org/1999/xhtml&quot; cellspacing=&quot;0&quot; cellpadding=&quot;0&quot; dir=&quot;ltr&quot; border=&quot;1&quot; style=&quot;table-layout:fixed;font-size:10pt;font-family:Arial;width:0px;border-collapse:collapse;border:none&quot; data-sheets-root=&quot;1&quot;&gt;&lt;colgroup&gt;&lt;col width=&quot;235&quot;&gt;&lt;/colgroup&gt;&lt;tbody&gt;&lt;tr style=&quot;height:21px;&quot;&gt;&lt;td style=&quot;border-top:1px dotted #000000;border-right:1px dotted #000000;border-bottom:1px dotted #000000;border-left:1px dotted #000000;overflow:hidden;padding:2px 3px 2px 3px;vertical-align:bottom;&quot; data-sheets-value=&quot;{&amp;quot;1&amp;quot;:2,&amp;quot;2&amp;quot;:&amp;quot;Header&amp;quot;}&quot;&gt;Header&lt;/td&gt;&lt;/tr&gt;&lt;tr style=&quot;height:21px;&quot;&gt;&lt;td style=&quot;border-right:1px dotted #000000;border-bottom:1px dotted #000000;border-left:1px dotted #000000;overflow:hidden;padding:2px 3px 2px 3px;vertical-align:bottom;&quot; data-sheets-value=&quot;{&amp;quot;1&amp;quot;:2,&amp;quot;2&amp;quot;:&amp;quot;Products &amp;amp; Services&amp;quot;}&quot;&gt;Products &amp;amp; Services&lt;/td&gt;&lt;/tr&gt;&lt;tr style=&quot;height:21px;&quot;&gt;&lt;td style=&quot;border-right:1px dotted #000000;border-bottom:1px dotted #000000;border-left:1px dotted #000000;overflow:hidden;padding:2px 3px 2px 3px;vertical-align:bottom;&quot; data-sheets-value=&quot;{&amp;quot;1&amp;quot;:2,&amp;quot;2&amp;quot;:&amp;quot;Image Slider&amp;quot;}&quot;&gt;Image Slider&lt;/td&gt;&lt;/tr&gt;&lt;tr style=&quot;height:21px;&quot;&gt;&lt;td style=&quot;border-right:1px dotted #000000;border-bottom:1px dotted #000000;border-left:1px dotted #000000;overflow:hidden;padding:2px 3px 2px 3px;vertical-align:bottom;&quot; data-sheets-value=&quot;{&amp;quot;1&amp;quot;:2,&amp;quot;2&amp;quot;:&amp;quot;FAQ&amp;quot;}&quot;&gt;FAQ&lt;/td&gt;&lt;/tr&gt;&lt;tr style=&quot;height:21px;&quot;&gt;&lt;td style=&quot;border-right:1px dotted #000000;border-bottom:1px dotted #000000;border-left:1px dotted #000000;overflow:hidden;padding:2px 3px 2px 3px;vertical-align:bottom;&quot; data-sheets-value=&quot;{&amp;quot;1&amp;quot;:2,&amp;quot;2&amp;quot;:&amp;quot;Pricing Page&amp;quot;}&quot;&gt;Pricing Page&lt;/td&gt;&lt;/tr&gt;&lt;tr style=&quot;height:21px;&quot;&gt;&lt;td style=&quot;border-right:1px dotted #000000;border-bottom:1px dotted #000000;border-left:1px dotted #000000;overflow:hidden;padding:2px 3px 2px 3px;vertical-align:bottom;&quot; data-sheets-value=&quot;{&amp;quot;1&amp;quot;:2,&amp;quot;2&amp;quot;:&amp;quot;Footer&amp;quot;}&quot;&gt;Footer&lt;/td&gt;&lt;/tr&gt;&lt;/tbody&gt;&lt;/table&gt;" id="wwRH5zeaDOmvwE6yOPtP-12">
          <mxCell style="text;whiteSpace=wrap;html=1;" vertex="1" parent="wwRH5zeaDOmvwE6yOPtP-11">
            <mxGeometry x="10" y="40" width="240" height="150" as="geometry" />
          </mxCell>
        </UserObject>
      </root>
    </mxGraphModel>
  </diagram>
</mxfile>
